<svg width="11" height="11" viewBox="0 0 11 11" fill="none" xmlns="http://www.w3.org/2000/svg">
<path d="M10.0593 1.78495C9.95391 1.70607 9.83396 1.64879 9.70636 1.61638L2.81652 0.0257348C2.68804 -0.00392714 2.55498 -0.00799248 2.42493 0.0137705C2.29488 0.0355335 2.17039 0.0826988 2.05856 0.152574C1.83273 0.293692 1.6722 0.518744 1.61229 0.77822C1.58263 0.9067 1.57857 1.03976 1.60033 1.16981C1.62209 1.29987 1.66926 1.42436 1.73913 1.53618C1.88025 1.76202 2.1053 1.92254 2.36478 1.98245L6.90677 3.02379L0.470088 7.04588C0.245172 7.18642 0.0852985 7.41056 0.0256377 7.66898C-0.0340231 7.9274 0.0114162 8.19893 0.151959 8.42385C0.292503 8.64876 0.516638 8.80864 0.775056 8.8683C1.03348 8.92796 1.30501 8.88252 1.52993 8.74198L7.96661 4.71989L6.91149 9.2587C6.88126 9.38721 6.87678 9.52042 6.8983 9.65067C6.91983 9.78092 6.96692 9.90561 7.03688 10.0176C7.10683 10.1295 7.19826 10.2265 7.30589 10.3029C7.41352 10.3794 7.53522 10.4338 7.66397 10.4629C7.79248 10.4932 7.9257 10.4976 8.05594 10.4761C8.18619 10.4546 8.31088 10.4075 8.42284 10.3375C8.53479 10.2676 8.63178 10.1762 8.70822 10.0685C8.78466 9.96089 8.83903 9.83919 8.8682 9.71044L10.4588 2.82061C10.4857 2.69171 10.4867 2.55879 10.4621 2.42947C10.4179 2.17 10.2732 1.93842 10.0593 1.78495Z" fill="white"/>
</svg>
